<svg id="twitter" xmlns="http://www.w3.org/2000/svg" width="30" height="24.375" viewBox="0 0 30 24.375">
  <defs>
    <style>
      .cls-1 {
        fill: #151d41;
      }
    </style>
  </defs>
  <g id="Group_67" data-name="Group 67" transform="translate(0 0)">
    <path id="Path_59" data-name="Path 59" class="cls-1" d="M30,81.354a12.823,12.823,0,0,1-3.544.971,6.116,6.116,0,0,0,2.706-3.4,12.291,12.291,0,0,1-3.9,1.489,6.15,6.15,0,0,0-10.639,4.206,6.333,6.333,0,0,0,.142,1.4A17.408,17.408,0,0,1,2.089,79.59a6.152,6.152,0,0,0,1.89,8.22A6.074,6.074,0,0,1,1.2,87.052v.068a6.179,6.179,0,0,0,4.927,6.043,6.139,6.139,0,0,1-1.612.2,5.438,5.438,0,0,1-1.164-.105A6.209,6.209,0,0,0,9.1,97.545a12.358,12.358,0,0,1-7.626,2.623A11.52,11.52,0,0,1,0,100.084a17.315,17.315,0,0,0,9.435,2.76c11.317,0,17.5-9.375,17.5-17.5,0-.272-.009-.534-.023-.795A12.269,12.269,0,0,0,30,81.354Z" transform="translate(0 -78.469)"/>
  </g>
</svg>
